<mxfile host="app.diagrams.net" modified="2023-02-20T13:20:38.590Z" agent="5.0 (Windows NT 10.0; Win64; x64) AppleWebKit/537.36 (KHTML, like Gecko) Chrome/110.0.0.0 Safari/537.36" etag="xsPQ0ebzxU-V8X5ZHg6Q" version="20.8.20" type="github">
  <diagram name="Page-1" id="V0WfuNw9sz8gxqWEoQXw">
    <mxGraphModel dx="1434" dy="834" grid="1" gridSize="10" guides="1" tooltips="1" connect="1" arrows="1" fold="1" page="1" pageScale="1" pageWidth="850" pageHeight="1100" math="0" shadow="0">
      <root>
        <mxCell id="0" />
        <mxCell id="1" parent="0" />
        <mxCell id="1z5gU-oOfNnaXvz1XnLi-1" value="User" style="shape=umlActor;verticalLabelPosition=bottom;verticalAlign=top;html=1;outlineConnect=0;" parent="1" vertex="1">
          <mxGeometry x="560" y="360" width="30" height="60" as="geometry" />
        </mxCell>
        <mxCell id="1z5gU-oOfNnaXvz1XnLi-3" value="Admin" style="shape=umlActor;verticalLabelPosition=bottom;verticalAlign=top;html=1;outlineConnect=0;" parent="1" vertex="1">
          <mxGeometry x="50" y="350" width="30" height="60" as="geometry" />
        </mxCell>
        <mxCell id="1z5gU-oOfNnaXvz1XnLi-4" value="Registrasi" style="ellipse;whiteSpace=wrap;html=1;" parent="1" vertex="1">
          <mxGeometry x="380" y="170" width="100" height="70" as="geometry" />
        </mxCell>
        <mxCell id="1z5gU-oOfNnaXvz1XnLi-5" value="" style="endArrow=classic;html=1;rounded=0;entryX=1;entryY=0.5;entryDx=0;entryDy=0;" parent="1" target="1z5gU-oOfNnaXvz1XnLi-4" edge="1">
          <mxGeometry width="50" height="50" relative="1" as="geometry">
            <mxPoint x="560" y="390" as="sourcePoint" />
            <mxPoint x="80" y="360" as="targetPoint" />
          </mxGeometry>
        </mxCell>
        <mxCell id="1z5gU-oOfNnaXvz1XnLi-7" value="Pencatatan Data Calon Nasabah" style="ellipse;whiteSpace=wrap;html=1;" parent="1" vertex="1">
          <mxGeometry x="380" y="355" width="100" height="70" as="geometry" />
        </mxCell>
        <mxCell id="1z5gU-oOfNnaXvz1XnLi-8" value="" style="endArrow=classic;html=1;rounded=0;entryX=1;entryY=0.5;entryDx=0;entryDy=0;" parent="1" source="1z5gU-oOfNnaXvz1XnLi-1" target="1z5gU-oOfNnaXvz1XnLi-7" edge="1">
          <mxGeometry width="50" height="50" relative="1" as="geometry">
            <mxPoint x="550" y="390" as="sourcePoint" />
            <mxPoint x="410" y="400" as="targetPoint" />
          </mxGeometry>
        </mxCell>
        <mxCell id="1z5gU-oOfNnaXvz1XnLi-10" value="Kelola Data Calon Nasabah" style="ellipse;whiteSpace=wrap;html=1;" parent="1" vertex="1">
          <mxGeometry x="380" y="440" width="100" height="70" as="geometry" />
        </mxCell>
        <mxCell id="1z5gU-oOfNnaXvz1XnLi-11" value="Data Izin" style="ellipse;whiteSpace=wrap;html=1;" parent="1" vertex="1">
          <mxGeometry x="380" y="530" width="100" height="70" as="geometry" />
        </mxCell>
        <mxCell id="1z5gU-oOfNnaXvz1XnLi-12" value="" style="endArrow=classic;html=1;rounded=0;entryX=1;entryY=0.5;entryDx=0;entryDy=0;" parent="1" target="1z5gU-oOfNnaXvz1XnLi-10" edge="1">
          <mxGeometry width="50" height="50" relative="1" as="geometry">
            <mxPoint x="560" y="390" as="sourcePoint" />
            <mxPoint x="410" y="400" as="targetPoint" />
          </mxGeometry>
        </mxCell>
        <mxCell id="1z5gU-oOfNnaXvz1XnLi-13" value="" style="endArrow=classic;html=1;rounded=0;entryX=1;entryY=0.5;entryDx=0;entryDy=0;" parent="1" target="1z5gU-oOfNnaXvz1XnLi-11" edge="1">
          <mxGeometry width="50" height="50" relative="1" as="geometry">
            <mxPoint x="560" y="390" as="sourcePoint" />
            <mxPoint x="410" y="400" as="targetPoint" />
          </mxGeometry>
        </mxCell>
        <mxCell id="1z5gU-oOfNnaXvz1XnLi-18" value="Login" style="ellipse;whiteSpace=wrap;html=1;" parent="1" vertex="1">
          <mxGeometry x="170" y="60" width="100" height="70" as="geometry" />
        </mxCell>
        <mxCell id="1z5gU-oOfNnaXvz1XnLi-19" value="Data marketing" style="ellipse;whiteSpace=wrap;html=1;" parent="1" vertex="1">
          <mxGeometry x="170" y="230" width="100" height="70" as="geometry" />
        </mxCell>
        <mxCell id="1z5gU-oOfNnaXvz1XnLi-21" value="" style="endArrow=classic;html=1;rounded=0;entryX=0;entryY=0.5;entryDx=0;entryDy=0;exitX=1;exitY=0.3333333333333333;exitDx=0;exitDy=0;exitPerimeter=0;" parent="1" source="1z5gU-oOfNnaXvz1XnLi-3" target="1z5gU-oOfNnaXvz1XnLi-18" edge="1">
          <mxGeometry width="50" height="50" relative="1" as="geometry">
            <mxPoint x="440" y="440" as="sourcePoint" />
            <mxPoint x="490" y="390" as="targetPoint" />
          </mxGeometry>
        </mxCell>
        <mxCell id="1z5gU-oOfNnaXvz1XnLi-23" value="" style="endArrow=classic;html=1;rounded=0;entryX=0;entryY=0.5;entryDx=0;entryDy=0;exitX=1;exitY=0.3333333333333333;exitDx=0;exitDy=0;exitPerimeter=0;" parent="1" source="1z5gU-oOfNnaXvz1XnLi-3" target="1z5gU-oOfNnaXvz1XnLi-19" edge="1">
          <mxGeometry width="50" height="50" relative="1" as="geometry">
            <mxPoint x="440" y="440" as="sourcePoint" />
            <mxPoint x="490" y="390" as="targetPoint" />
          </mxGeometry>
        </mxCell>
        <mxCell id="1z5gU-oOfNnaXvz1XnLi-24" value="Data Calon Nasabah Markting" style="ellipse;whiteSpace=wrap;html=1;" parent="1" vertex="1">
          <mxGeometry x="170" y="310" width="100" height="70" as="geometry" />
        </mxCell>
        <mxCell id="1z5gU-oOfNnaXvz1XnLi-25" value="&amp;lt;&amp;lt;include&amp;gt;&amp;gt;" style="html=1;verticalAlign=bottom;endArrow=open;dashed=1;endSize=8;elbow=vertical;rounded=0;entryX=1;entryY=0.5;entryDx=0;entryDy=0;exitX=0;exitY=0.41;exitDx=0;exitDy=0;exitPerimeter=0;" parent="1" source="1z5gU-oOfNnaXvz1XnLi-7" target="1z5gU-oOfNnaXvz1XnLi-24" edge="1">
          <mxGeometry relative="1" as="geometry">
            <mxPoint x="390" y="224.78" as="sourcePoint" />
            <mxPoint x="282" y="259" as="targetPoint" />
          </mxGeometry>
        </mxCell>
        <mxCell id="1z5gU-oOfNnaXvz1XnLi-26" value="" style="endArrow=classic;html=1;rounded=0;exitX=1;exitY=0.3333333333333333;exitDx=0;exitDy=0;exitPerimeter=0;entryX=0;entryY=0.5;entryDx=0;entryDy=0;" parent="1" source="1z5gU-oOfNnaXvz1XnLi-3" target="1z5gU-oOfNnaXvz1XnLi-24" edge="1">
          <mxGeometry width="50" height="50" relative="1" as="geometry">
            <mxPoint x="440" y="410" as="sourcePoint" />
            <mxPoint x="490" y="360" as="targetPoint" />
          </mxGeometry>
        </mxCell>
        <mxCell id="1z5gU-oOfNnaXvz1XnLi-28" value="&amp;lt;&amp;lt;include&amp;gt;&amp;gt;" style="html=1;verticalAlign=bottom;endArrow=open;dashed=1;endSize=8;elbow=vertical;rounded=0;exitX=0;exitY=0.5;exitDx=0;exitDy=0;" parent="1" source="1z5gU-oOfNnaXvz1XnLi-10" edge="1">
          <mxGeometry relative="1" as="geometry">
            <mxPoint x="370" y="399.5" as="sourcePoint" />
            <mxPoint x="270" y="350" as="targetPoint" />
          </mxGeometry>
        </mxCell>
        <mxCell id="1z5gU-oOfNnaXvz1XnLi-29" value="Daftar izin" style="ellipse;whiteSpace=wrap;html=1;" parent="1" vertex="1">
          <mxGeometry x="170" y="390" width="100" height="70" as="geometry" />
        </mxCell>
        <mxCell id="1z5gU-oOfNnaXvz1XnLi-31" value="&amp;lt;&amp;lt;extend&amp;gt;&amp;gt;" style="html=1;verticalAlign=bottom;endArrow=open;dashed=1;endSize=8;elbow=vertical;rounded=0;exitX=1;exitY=0.5;exitDx=0;exitDy=0;entryX=0;entryY=0.429;entryDx=0;entryDy=0;entryPerimeter=0;" parent="1" source="1z5gU-oOfNnaXvz1XnLi-29" target="1z5gU-oOfNnaXvz1XnLi-11" edge="1">
          <mxGeometry relative="1" as="geometry">
            <mxPoint x="390" y="485" as="sourcePoint" />
            <mxPoint x="280" y="360" as="targetPoint" />
          </mxGeometry>
        </mxCell>
        <mxCell id="1z5gU-oOfNnaXvz1XnLi-32" value="" style="endArrow=classic;html=1;rounded=0;exitX=1;exitY=0.3333333333333333;exitDx=0;exitDy=0;exitPerimeter=0;entryX=0;entryY=0.5;entryDx=0;entryDy=0;" parent="1" source="1z5gU-oOfNnaXvz1XnLi-3" target="1z5gU-oOfNnaXvz1XnLi-29" edge="1">
          <mxGeometry width="50" height="50" relative="1" as="geometry">
            <mxPoint x="440" y="430" as="sourcePoint" />
            <mxPoint x="490" y="380" as="targetPoint" />
          </mxGeometry>
        </mxCell>
        <mxCell id="1z5gU-oOfNnaXvz1XnLi-34" value="Persetujuan Izin" style="ellipse;whiteSpace=wrap;html=1;" parent="1" vertex="1">
          <mxGeometry x="170" y="470" width="100" height="70" as="geometry" />
        </mxCell>
        <mxCell id="1z5gU-oOfNnaXvz1XnLi-35" value="&amp;lt;&amp;lt;include&amp;gt;&amp;gt;" style="html=1;verticalAlign=bottom;endArrow=open;dashed=1;endSize=8;elbow=vertical;rounded=0;exitX=0;exitY=0.5;exitDx=0;exitDy=0;entryX=1;entryY=0.5;entryDx=0;entryDy=0;" parent="1" source="1z5gU-oOfNnaXvz1XnLi-11" target="1z5gU-oOfNnaXvz1XnLi-34" edge="1">
          <mxGeometry relative="1" as="geometry">
            <mxPoint x="390" y="485" as="sourcePoint" />
            <mxPoint x="280" y="360" as="targetPoint" />
          </mxGeometry>
        </mxCell>
        <mxCell id="1z5gU-oOfNnaXvz1XnLi-37" value="" style="endArrow=classic;html=1;rounded=0;entryX=0;entryY=0.5;entryDx=0;entryDy=0;" parent="1" target="1z5gU-oOfNnaXvz1XnLi-34" edge="1">
          <mxGeometry width="50" height="50" relative="1" as="geometry">
            <mxPoint x="80" y="370" as="sourcePoint" />
            <mxPoint x="180" y="445" as="targetPoint" />
          </mxGeometry>
        </mxCell>
        <mxCell id="1z5gU-oOfNnaXvz1XnLi-38" value="Persetujuan Registrasi User" style="ellipse;whiteSpace=wrap;html=1;" parent="1" vertex="1">
          <mxGeometry x="170" y="150" width="100" height="70" as="geometry" />
        </mxCell>
        <mxCell id="1z5gU-oOfNnaXvz1XnLi-39" value="&amp;lt;&amp;lt;include&amp;gt;&amp;gt;" style="html=1;verticalAlign=bottom;endArrow=open;dashed=1;endSize=8;elbow=vertical;rounded=0;entryX=1;entryY=0.5;entryDx=0;entryDy=0;exitX=0;exitY=0.5;exitDx=0;exitDy=0;" parent="1" source="1z5gU-oOfNnaXvz1XnLi-4" target="1z5gU-oOfNnaXvz1XnLi-38" edge="1">
          <mxGeometry relative="1" as="geometry">
            <mxPoint x="390" y="224.78" as="sourcePoint" />
            <mxPoint x="282" y="269" as="targetPoint" />
          </mxGeometry>
        </mxCell>
        <mxCell id="1z5gU-oOfNnaXvz1XnLi-40" value="" style="endArrow=classic;html=1;rounded=0;entryX=0;entryY=0.5;entryDx=0;entryDy=0;" parent="1" target="1z5gU-oOfNnaXvz1XnLi-38" edge="1">
          <mxGeometry width="50" height="50" relative="1" as="geometry">
            <mxPoint x="80" y="370" as="sourcePoint" />
            <mxPoint x="180" y="275" as="targetPoint" />
          </mxGeometry>
        </mxCell>
        <mxCell id="1z5gU-oOfNnaXvz1XnLi-41" value="Daftar Penolakan" style="ellipse;whiteSpace=wrap;html=1;" parent="1" vertex="1">
          <mxGeometry x="170" y="550" width="100" height="70" as="geometry" />
        </mxCell>
        <mxCell id="1z5gU-oOfNnaXvz1XnLi-42" value="" style="endArrow=classic;html=1;rounded=0;entryX=0;entryY=0.5;entryDx=0;entryDy=0;" parent="1" target="1z5gU-oOfNnaXvz1XnLi-41" edge="1">
          <mxGeometry width="50" height="50" relative="1" as="geometry">
            <mxPoint x="80" y="370" as="sourcePoint" />
            <mxPoint x="180" y="515" as="targetPoint" />
          </mxGeometry>
        </mxCell>
        <mxCell id="1z5gU-oOfNnaXvz1XnLi-43" value="Laporan" style="ellipse;whiteSpace=wrap;html=1;" parent="1" vertex="1">
          <mxGeometry x="170" y="630" width="100" height="70" as="geometry" />
        </mxCell>
        <mxCell id="1z5gU-oOfNnaXvz1XnLi-44" value="" style="endArrow=classic;html=1;rounded=0;entryX=0;entryY=0.5;entryDx=0;entryDy=0;" parent="1" target="1z5gU-oOfNnaXvz1XnLi-43" edge="1">
          <mxGeometry width="50" height="50" relative="1" as="geometry">
            <mxPoint x="80" y="370" as="sourcePoint" />
            <mxPoint x="180" y="595" as="targetPoint" />
          </mxGeometry>
        </mxCell>
        <mxCell id="1z5gU-oOfNnaXvz1XnLi-45" value="Data User" style="ellipse;whiteSpace=wrap;html=1;" parent="1" vertex="1">
          <mxGeometry x="170" y="710" width="100" height="70" as="geometry" />
        </mxCell>
        <mxCell id="1z5gU-oOfNnaXvz1XnLi-46" value="" style="endArrow=classic;html=1;rounded=0;entryX=0;entryY=0.5;entryDx=0;entryDy=0;" parent="1" target="1z5gU-oOfNnaXvz1XnLi-45" edge="1">
          <mxGeometry width="50" height="50" relative="1" as="geometry">
            <mxPoint x="80" y="370" as="sourcePoint" />
            <mxPoint x="180" y="675" as="targetPoint" />
          </mxGeometry>
        </mxCell>
        <mxCell id="D_NjP2qwujQhMajjGbAU-1" value="Login" style="ellipse;whiteSpace=wrap;html=1;" vertex="1" parent="1">
          <mxGeometry x="380" y="260" width="100" height="70" as="geometry" />
        </mxCell>
        <mxCell id="D_NjP2qwujQhMajjGbAU-4" value="&amp;lt;&amp;lt;extend&amp;gt;&amp;gt;" style="html=1;verticalAlign=bottom;endArrow=open;dashed=1;endSize=8;elbow=vertical;rounded=0;entryX=0;entryY=0.5;entryDx=0;entryDy=0;" edge="1" parent="1" target="D_NjP2qwujQhMajjGbAU-1">
          <mxGeometry relative="1" as="geometry">
            <mxPoint x="270" y="190" as="sourcePoint" />
            <mxPoint x="282" y="269" as="targetPoint" />
          </mxGeometry>
        </mxCell>
        <mxCell id="D_NjP2qwujQhMajjGbAU-5" value="" style="endArrow=classic;html=1;rounded=0;entryX=1;entryY=0.5;entryDx=0;entryDy=0;" edge="1" parent="1" target="D_NjP2qwujQhMajjGbAU-1">
          <mxGeometry width="50" height="50" relative="1" as="geometry">
            <mxPoint x="560" y="390" as="sourcePoint" />
            <mxPoint x="500" y="135" as="targetPoint" />
          </mxGeometry>
        </mxCell>
      </root>
    </mxGraphModel>
  </diagram>
</mxfile>
